<?xml version="1.0" encoding="UTF-8" standalone="no"?>
<svg
   version="1.1"
   width="70"
   height="70"
   viewBox="0 0 93.73215 158.01666"
   xmlns="http://www.w3.org/2000/svg">
  <rect
     style="fill:#f7f0dc;stroke-width:0.992644"
     width="158.01666"
     height="158.01666"
     x="-32.142254"
     y="0"/>
  <path
     style="fill:#000000"
     d="M 39.141336,114.16261 C 38.064196,66.233263 33.597086,47.318642 19.764616,32.117799 14.145036,25.942288 8.4775159,23.159552 1.519606,23.159552 c -7.5033601,0 -12.35677,2.669415 -19.69696,10.833467 -5.35517,5.956233 -8.969708,8.334061 -8.969708,5.900725 0,-2.045038 9.635588,-13.641892 14.749168,-17.751284 10.8008699,-8.679813 23.45013,-10.458768 35.26054,-4.958938 16.46836,7.66893 26.16951,29.007433 30.69824,67.523411 1.07729,9.16218 1.95872,21.140747 1.95872,26.619057 0,8.5407 0.26348,9.68224 1.84839,8.00817 3.37684,-3.56684 33.72558,-52.465137 38.45077,-61.952385 6.774684,-13.60224 9.759034,-17.436923 2.97812,-18.021309 -2.02304,-0.174347 -4.99738,-0.719859 -6.75995,-0.719859 -2.30083,0 -2.47869,-0.5641 -2.43723,-2 0.01,-0.333946 0.27181,-1.91861 0.57971,-2.208902 0,0 5.78677,-0.383263 16.260624,-0.383263 11.99001,0 15.77468,0.01873 15.77468,0.01873 0,0 -1.00272,4.062668 -1.72611,4.506659 -0.67256,0.412794 -3.33287,0.0057 -4.18996,0.206721 -2.52357,0.591783 -8.62547,11.347223 -34.112374,51.469461 -17.96667,28.283637 -33.43499,52.342427 -34.37406,53.463957 -0.93906,1.12155 -3.10841,2.30699 -4.82077,2.63432 l -3.1134,0.59518 z"/>
</svg>
